# xmcd
#
# Track frame offsets:
#	150
#	13475
#	37657
#	63290
#	83630
#	115035
#	137560
#	158430
#	174402
#
# Disc length: 3048 seconds
#
# Revision: 1
# Processed by: cddbd v1.5.2PL0 Copyright (c) Steve Scherf et al.
# Submitted via: audiograbber 1.83.01
#
DISCID=5f0be609
DTITLE=Del Way - My Time With You
DYEAR=1900
DGENRE=Christian Country Rock
TTITLE0=The Light`s Shining Bright
TTITLE1=My Time With You
TTITLE2=I`ve Come To Worship
TTITLE3=Through the Blood
TTITLE4=He Was Thinking Of Me
TTITLE5=Salvation
TTITLE6=Baby Girl
TTITLE7=He Is Mine
TTITLE8=Praise Medley
EXTD=
EXTT0=
EXTT1=
EXTT2=
EXTT3=
EXTT4=
EXTT5=
EXTT6=
EXTT7=
EXTT8=
PLAYORDER=
